<svg xmlns="http://www.w3.org/2000/svg" viewBox="0 0 512 512">
    <rect fill="#0F172A" x="0" y="0" width="512" height="512" rx="60" fill-rule="evenodd"></rect>
    <path d="M260.890625,386.046875 C316.234375,386.046875 356.625,354.421875 363.84375,306.8125 L363.84375,305.78125 L325.6875,305.78125 L325.34375,306.46875 C318.296875,334.484375 293.71875,352.015625 260.890625,352.015625 C216.203125,352.015625 188.359375,315.0625 188.359375,256.28125 L188.359375,255.9375 C188.359375,196.984375 216.203125,160.03125 260.71875,160.03125 C293.375,160.03125 318.296875,179.796875 325.515625,210.21875 L325.515625,210.734375 L363.671875,210.734375 L363.84375,209.875 C357.3125,160.546875 315.375,126 260.71875,126 C191.796875,126 149,175.84375 149,255.9375 L149,256.28125 C149,336.203125 191.96875,386.046875 260.890625,386.046875 Z" fill="#38bdf8" fill-rule="nonzero"></path>
</svg>
